<?xml version="1.0" standalone="no"?><!DOCTYPE svg PUBLIC "-//W3C//DTD SVG 1.1//EN" "http://www.w3.org/Graphics/SVG/1.1/DTD/svg11.dtd">
<svg t="1710488448821" viewBox="0 0 1024 1024" version="1.1"
  xmlns="http://www.w3.org/2000/svg" p-id="7384"
  xmlns:xlink="http://www.w3.org/1999/xlink" width="48" height="48">
  <path d="M907.906977 366.139535l-1.984496-181.581395C727.317829 209.364341 753.116279 41.674419 753.116279 41.674419H577.488372v634.046511c0.992248 24.508527-3.968992 39.689922-3.968992 39.689923-20.539535 73.724031-84.341085 87.317829-84.341085 87.317829-89.6 21.829457-131.968992-47.627907-131.968993-47.627907-51.596899-73.724031 4.96124-144.868217 4.961241-144.868217 74.418605-83.348837 163.72093-22.821705 163.72093-22.821705V403.844961c-180.589147-43.658915-291.72093 96.248062-291.72093 96.248062-149.829457 186.542636-18.852713 358.20155-18.852714 358.201551 147.844961 188.527132 334.387597 114.108527 334.387597 114.108527 215.317829-76.403101 203.410853-286.75969 203.410853-286.75969V343.317829c75.410853 36.713178 154.790698 22.821705 154.790698 22.821706z" fill="currentColor" p-id="7385"></path>
</svg>