<?xml version="1.0" standalone="no"?><!DOCTYPE svg PUBLIC "-//W3C//DTD SVG 1.1//EN" "http://www.w3.org/Graphics/SVG/1.1/DTD/svg11.dtd">
<svg t="1710601995176" class="icon" viewBox="0 0 1024 1024" version="1.1"
  xmlns="http://www.w3.org/2000/svg" p-id="5471"
  xmlns:xlink="http://www.w3.org/1999/xlink" width="48" height="48">
  <path d="M380.032 128c109.824 0 223.68 38.784 290.688 121.6 30.272 37.376 49.728 76.672 58.752 116.16 58.24 7.424 114.56 27.84 159.744 61.312 118.976 88.192 145.152 240.256 22.528 354.88l-10.752 9.6-2.88 27.968c-0.448 5.568-0.64 9.92-0.64 14.336 0 8.448 0.896 15.36 2.752 20.864l1.28 4.864a31.552 31.552 0 0 1-41.344 34.752l-81.792-27.008-3.776 0.768c-151.168 24.512-311.872-46.4-366.336-171.648-49.92 3.2-91.776-2.816-113.92-10.112-0.128 0-1.152-0.256-3.712 0.064a58.112 58.112 0 0 0-12.544 3.328c-10.88 3.968-23.616 10.624-37.696 18.688l-14.208 8.32c-9.216 5.376-18.816 11.008-27.072 15.424a181.376 181.376 0 0 1-20.416 9.6 68.48 68.48 0 0 1-24.064 4.992 29.952 29.952 0 0 1-24.192-12.16 29.184 29.184 0 0 1-4.096-26.624l23.296-68.864C33.6 542.016-14.912 378.432 89.408 249.536 156.352 166.784 270.208 128 380.032 128zM851.2 477.184c-128.832-95.488-374.656-56.64-396.864 97.28-22.656 156.288 156.288 262.4 320.192 230.016a32 32 0 0 1 16.192 0.96l43.84 14.464 0.32-4.736 3.2-30.976 0.384-7.936c0-9.536 4.416-18.56 11.904-24.448 111.552-88.192 95.872-204.16 0.832-274.624zM380.032 186.88c-97.92 0-191.808 34.816-244.096 99.392-81.536 100.736-44.16 237.056 66.432 318.976 10.24 7.68 14.464 20.864 10.368 32.896l-7.488 22.208 5.248-3.008c14.464-8.32 30.912-17.152 47.04-23.04 15.168-5.504 35.712-10.496 55.616-3.968 12.032 3.968 40.704 8.96 78.336 7.872a246.208 246.208 0 0 1-1.408-60.16l1.536-12.544c18.944-130.944 144.192-199.04 275.2-202.88a236.352 236.352 0 0 0-42.688-76.352c-52.288-64.576-146.176-99.392-244.096-99.392zM606.336 509.44c26.368 0 42.624 17.536 42.624 33.984s-16.256 34.048-42.624 34.048c-17.344 0-34.752-17.024-34.752-34.048s17.408-33.984 34.752-33.984z m178.944 0c26.304 0 42.624 17.536 42.624 33.984s-16.32 34.048-42.624 34.048c-17.408 0-34.24-17.024-34.24-34.048s16.832-33.984 34.24-33.984zM500.48 278.4c25.216 0 42.56 16.96 42.56 41.6 0 24.768-16.768 41.792-42.624 41.792-24.64 0-51.008-16.512-51.008-41.728 0-25.792 26.368-41.728 51.008-41.728zM272.128 277.76c25.216 0 42.624 17.024 42.624 41.728 0 25.216-16.832 42.24-42.624 41.664-24.704 0-51.072-15.872-51.072-41.664s26.368-41.728 51.072-41.728z" fill="#000000" p-id="5472"></path>
</svg>